{
	"asset":{
		"generator":"Khronos glTF Blender I/O v4.3.47",
		"version":"2.0"
	},
	"scene":0,
	"scenes":[
		{
			"name":"Scene",
			"nodes":[
				0,
				1
			]
		}
	],
	"nodes":[
		{
			"mesh":0,
			"name":" \u8fde\u63a5\u7684\u5b9e\u5fc3\u51e0\u4f55\u56fe\u5f62 [9498]",
			"scale":[
				0.30480000376701355,
				0.30480000376701355,
				0.30480000376701355
			]
		},
		{
			"mesh":1,
			"name":" \u8fde\u63a5\u7684\u5b9e\u5fc3\u51e0\u4f55\u56fe\u5f62 [10043]",
			"scale":[
				0.30480000376701355,
				0.30480000376701355,
				0.30480000376701355
			]
		}
	],
	"meshes":[
		{
			"name":" \u8fde\u63a5\u7684\u5b9e\u5fc3\u51e0\u4f55\u56fe\u5f62 [9498] Geometry",
			"primitives":[
				{
					"attributes":{
						"POSITION":0,
						"NORMAL":1,
						"TEXCOORD_0":2
					},
					"indices":3
				}
			]
		},
		{
			"name":" \u8fde\u63a5\u7684\u5b9e\u5fc3\u51e0\u4f55\u56fe\u5f62 [10043] Geometry",
			"primitives":[
				{
					"attributes":{
						"POSITION":4,
						"NORMAL":5,
						"TEXCOORD_0":6
					},
					"indices":7
				}
			]
		}
	],
	"accessors":[
		{
			"bufferView":0,
			"componentType":5126,
			"count":1990,
			"max":[
				1.3305294513702393,
				2.1653542518615723,
				-0.32808399200439453
			],
			"min":[
				-0.5723576545715332,
				1.7716535329818726,
				-2.034120798110962
			],
			"type":"VEC3"
		},
		{
			"bufferView":1,
			"componentType":5126,
			"count":1990,
			"type":"VEC3"
		},
		{
			"bufferView":2,
			"componentType":5126,
			"count":1990,
			"type":"VEC2"
		},
		{
			"bufferView":3,
			"componentType":5123,
			"count":6888,
			"type":"SCALAR"
		},
		{
			"bufferView":4,
			"componentType":5126,
			"count":720,
			"max":[
				1.2747552394866943,
				2.0439577102661133,
				-0.6397637724876404
			],
			"min":[
				-0.5174970626831055,
				1.8930445909500122,
				-1.7658437490463257
			],
			"type":"VEC3"
		},
		{
			"bufferView":5,
			"componentType":5126,
			"count":720,
			"type":"VEC3"
		},
		{
			"bufferView":6,
			"componentType":5126,
			"count":720,
			"type":"VEC2"
		},
		{
			"bufferView":7,
			"componentType":5123,
			"count":1944,
			"type":"SCALAR"
		}
	],
	"bufferViews":[
		{
			"buffer":0,
			"byteLength":23880,
			"byteOffset":0,
			"target":34962
		},
		{
			"buffer":0,
			"byteLength":23880,
			"byteOffset":23880,
			"target":34962
		},
		{
			"buffer":0,
			"byteLength":15920,
			"byteOffset":47760,
			"target":34962
		},
		{
			"buffer":0,
			"byteLength":13776,
			"byteOffset":63680,
			"target":34963
		},
		{
			"buffer":0,
			"byteLength":8640,
			"byteOffset":77456,
			"target":34962
		},
		{
			"buffer":0,
			"byteLength":8640,
			"byteOffset":86096,
			"target":34962
		},
		{
			"buffer":0,
			"byteLength":5760,
			"byteOffset":94736,
			"target":34962
		},
		{
			"buffer":0,
			"byteLength":3888,
			"byteOffset":100496,
			"target":34963
		}
	],
	"buffers":[
		{
			"byteLength":104384,
			"uri":"model.bin"
		}
	]
}
